<?xml version="1.0" encoding="utf-8"?>
<!-- Generator: Adobe Illustrator 26.0.2, SVG Export Plug-In . SVG Version: 6.00 Build 0)  -->
<svg version="1.1" id="Layer_1" xmlns="http://www.w3.org/2000/svg" xmlns:xlink="http://www.w3.org/1999/xlink" x="0px" y="0px"
	 viewBox="0 0 300 60" style="enable-background:new 0 0 300 60;" xml:space="preserve">
<style type="text/css">
	.st0{fill:#FFFFFF;}
</style>
<g>
	<path class="st0" d="M73.68,25.41h2.27c2.76,0,4.26,1.64,4.26,4.55c0,2.93-1.5,4.64-4.2,4.64h-2.33V25.41z M75.86,33.63
		c2.09,0,3.12-1.34,3.12-3.67c0-2.31-1.04-3.59-3.12-3.59h-1.01v7.26H75.86z"/>
	<path class="st0" d="M82.89,33.6h2.28v-7.2h-2.28v-0.99h5.74v0.99h-2.28v7.2h2.28v0.99h-5.74V33.6z"/>
	<path class="st0" d="M91.6,33.4l0.7-0.81c0.7,0.69,1.65,1.13,2.69,1.13c1.26,0,1.99-0.6,1.99-1.44c0-0.98-0.71-1.26-1.64-1.65
		l-1.33-0.59c-0.91-0.36-1.98-1.01-1.98-2.37c0-1.4,1.26-2.44,3.01-2.44c1.15,0,2.16,0.46,2.83,1.13l-0.62,0.76
		c-0.6-0.53-1.3-0.85-2.26-0.85c-1.06,0-1.78,0.5-1.78,1.33c0,0.88,0.85,1.2,1.64,1.51l1.29,0.57c1.13,0.45,2.03,1.09,2.03,2.45
		c0,1.46-1.23,2.62-3.25,2.62C93.59,34.76,92.42,34.23,91.6,33.4z"/>
	<path class="st0" d="M100.67,30c0-2.96,1.72-4.76,4.12-4.76c1.11,0,1.98,0.53,2.52,1.12l-0.67,0.74c-0.48-0.5-1.08-0.83-1.85-0.83
		c-1.75,0-2.9,1.41-2.9,3.7c0,2.31,1.15,3.75,2.9,3.75c0.84,0,1.48-0.36,2.06-1.01l0.67,0.71c-0.71,0.84-1.62,1.33-2.84,1.33
		C102.41,34.76,100.67,33,100.67,30z"/>
	<path class="st0" d="M109.53,29.96c0-2.97,1.46-4.72,3.53-4.72c2.07,0,3.53,1.75,3.53,4.72c0,3.01-1.46,4.8-3.53,4.8
		C110.99,34.76,109.53,32.97,109.53,29.96z M115.37,29.96c0-2.31-0.92-3.68-2.31-3.68s-2.31,1.37-2.31,3.68
		c0,2.35,0.92,3.77,2.31,3.77S115.37,32.31,115.37,29.96z"/>
	<path class="st0" d="M118.55,25.41h1.26l1.47,4.96c0.32,1.08,0.55,1.96,0.88,3.03h0.06c0.34-1.06,0.57-1.95,0.88-3.03l1.47-4.96
		h1.21l-2.91,9.19h-1.37L118.55,25.41z"/>
	<path class="st0" d="M128.66,25.41h5.69v0.99h-4.51v2.87h3.81v0.99h-3.81v3.33h4.65v0.99h-5.83V25.41z"/>
	<path class="st0" d="M137.55,25.41h2.87c1.86,0,3.22,0.67,3.22,2.59c0,1.83-1.36,2.72-3.22,2.72h-1.68v3.88h-1.19V25.41z
		 M140.25,29.76c1.43,0,2.21-0.59,2.21-1.77c0-1.2-0.78-1.64-2.21-1.64h-1.51v3.4H140.25z M141.1,29.78l2.8,4.82h-1.33l-2.4-4.2
		L141.1,29.78z"/>
	<path class="st0" d="M157.97,26.4h-3.04v-0.99h7.26v0.99h-3.04v8.19h-1.18V26.4z"/>
	<path class="st0" d="M164.56,25.41h1.19v3.84h3.81v-3.84h1.19v9.19h-1.19v-4.31h-3.81v4.31h-1.19V25.41z"/>
	<path class="st0" d="M174.15,25.41h5.69v0.99h-4.51v2.87h3.81v0.99h-3.81v3.33h4.65v0.99h-5.83V25.41z"/>
	<path class="st0" d="M182.67,25.41h1.43l1.29,3.92l0.45,1.48h0.06l0.43-1.48l1.3-3.92h1.43v9.19h-1.12V30c0-0.9,0.14-2.47,0.2-3.25
		h-0.04l-0.52,1.79l-1.32,3.61h-0.84l-1.29-3.61l-0.53-1.79h-0.03c0.08,0.78,0.2,2.35,0.2,3.25v4.59h-1.09V25.41z"/>
	<path class="st0" d="M201.01,25.41h1.29l2.94,5.77l0.88,1.91h0.03c-0.04-0.91-0.15-1.95-0.15-2.91v-4.76h1.12v9.19h-1.29
		l-2.94-5.77L202,26.92h-0.03c0.04,0.94,0.15,1.92,0.15,2.87v4.8h-1.12V25.41z"/>
	<path class="st0" d="M209.63,29.96c0-2.97,1.46-4.72,3.53-4.72s3.53,1.75,3.53,4.72c0,3.01-1.46,4.8-3.53,4.8
		S209.63,32.97,209.63,29.96z M215.47,29.96c0-2.31-0.92-3.68-2.31-3.68s-2.31,1.37-2.31,3.68c0,2.35,0.92,3.77,2.31,3.77
		S215.47,32.31,215.47,29.96z"/>
	<path class="st0" d="M218.2,25.39h1.32l0.67,5.77c0.08,0.77,0.14,1.22,0.18,2.13h0.04c0.17-0.91,0.27-1.36,0.45-2.12l0.9-3.42h1.12
		l0.87,3.42c0.2,0.76,0.28,1.2,0.45,2.12h0.06c0.06-0.91,0.08-1.36,0.17-2.12l0.64-5.79h1.26l-1.34,9.2h-1.46l-0.9-3.7
		c-0.14-0.56-0.25-1.09-0.34-1.65h-0.04c-0.1,0.56-0.18,1.09-0.32,1.65l-0.9,3.7h-1.43L218.2,25.39z"/>
</g>
</svg>
