<?xml version="1.0" encoding="utf-8"?>
<!-- Generator: Adobe Illustrator 26.0.2, SVG Export Plug-In . SVG Version: 6.00 Build 0)  -->
<svg version="1.1" id="Layer_1" xmlns="http://www.w3.org/2000/svg" xmlns:xlink="http://www.w3.org/1999/xlink" x="0px" y="0px"
	 viewBox="0 0 200 60" style="enable-background:new 0 0 200 60;" xml:space="preserve">
<style type="text/css">
	.st0{fill:#FFFFFF;}
</style>
<g>
	<path class="st0" d="M55.53,23.64h-3.47v-1.14h8.29v1.14h-3.47v9.36h-1.34V23.64z"/>
	<path class="st0" d="M66.23,22.51h1.54l3.54,10.5h-1.44l-1.81-5.86c-0.37-1.17-0.72-2.32-1.04-3.54h-0.06
		c-0.34,1.22-0.67,2.37-1.04,3.54l-1.84,5.86H62.7L66.23,22.51z M64.57,28.73h4.82v1.09h-4.82V28.73z"/>
	<path class="st0" d="M74.07,31.65l0.8-0.93c0.8,0.78,1.89,1.3,3.07,1.3c1.44,0,2.27-0.69,2.27-1.65c0-1.12-0.82-1.44-1.87-1.89
		l-1.52-0.67c-1.04-0.42-2.26-1.15-2.26-2.71c0-1.6,1.44-2.79,3.44-2.79c1.31,0,2.46,0.53,3.23,1.3l-0.7,0.86
		c-0.69-0.61-1.49-0.98-2.58-0.98c-1.22,0-2.03,0.58-2.03,1.52c0,1.01,0.98,1.38,1.87,1.73l1.47,0.66c1.3,0.51,2.32,1.25,2.32,2.8
		c0,1.67-1.41,2.99-3.71,2.99C76.35,33.2,75.02,32.59,74.07,31.65z"/>
	<path class="st0" d="M87.93,23.64h-3.47v-1.14h8.29v1.14h-3.47v9.36h-1.34V23.64z"/>
	<path class="st0" d="M96.43,22.51h6.5v1.14h-5.15v3.28h4.35v1.14h-4.35v3.81h5.31v1.14h-6.66V22.51z"/>
	<path class="st0" d="M117.72,31.87h2.61v-8.23h-2.61v-1.14h6.56v1.14h-2.61v8.23h2.61v1.14h-6.56V31.87z"/>
	<path class="st0" d="M131.13,23.64h-3.47v-1.14h8.29v1.14h-3.47v9.36h-1.34V23.64z"/>
	<path class="st0" d="M141.42,31.95c0-0.77,0.54-1.23,1.18-1.23c0.64,0,1.18,0.46,1.18,1.23c0,0.77-0.54,1.25-1.18,1.25
		C141.96,33.2,141.42,32.72,141.42,31.95z M141.98,23.79l-0.03-1.5h1.31l-0.03,1.5l-0.18,5.49h-0.9L141.98,23.79z"/>
</g>
</svg>
