<?xml version="1.0" encoding="utf-8"?>
<!-- Generator: Adobe Illustrator 26.0.2, SVG Export Plug-In . SVG Version: 6.00 Build 0)  -->
<svg version="1.1" id="Layer_1" xmlns="http://www.w3.org/2000/svg" xmlns:xlink="http://www.w3.org/1999/xlink" x="0px" y="0px"
	 viewBox="0 0 180 60" style="enable-background:new 0 0 180 60;" xml:space="preserve">
<g>
	<path d="M51.4,24.77h2.98c2.14,0,3.6,0.72,3.6,2.56c0,1.04-0.59,1.97-1.84,2.29v0.06c1.54,0.24,2.43,1.07,2.43,2.51
		c0,2.06-1.6,3.07-3.95,3.07H51.4V24.77z M54.15,29.18c1.79,0,2.51-0.58,2.51-1.74c0-1.14-0.83-1.55-2.45-1.55h-1.49v3.3H54.15z
		 M54.42,34.15c1.79,0,2.83-0.59,2.83-2.02c0-1.3-0.99-1.82-2.83-1.82h-1.7v3.84H54.42z"/>
	<path d="M61.48,31.3v-6.53h1.36v6.56c0,2.16,0.94,2.95,2.19,2.95c1.26,0,2.23-0.78,2.23-2.95v-6.56h1.3v6.53
		c0,3.01-1.47,4.16-3.52,4.16C62.97,35.46,61.48,34.31,61.48,31.3z"/>
	<path d="M74.74,31.52l-3.52-6.75h1.42l1.57,3.1c0.4,0.82,0.77,1.62,1.2,2.45h0.06c0.42-0.83,0.83-1.63,1.23-2.45l1.52-3.1h1.38
		l-3.52,6.75v3.75h-1.34V31.52z"/>
	<path d="M92.73,24.77h1.47l3.36,6.59l1.01,2.18h0.03c-0.05-1.04-0.18-2.23-0.18-3.33v-5.44h1.28v10.5h-1.47l-3.36-6.59l-1.01-2.18
		h-0.03c0.05,1.07,0.18,2.19,0.18,3.28v5.49h-1.28V24.77z"/>
	<path d="M102.58,29.97c0-3.39,1.66-5.39,4.03-5.39c2.37,0,4.03,2,4.03,5.39c0,3.44-1.66,5.49-4.03,5.49
		C104.25,35.46,102.58,33.41,102.58,29.97z M109.26,29.97c0-2.64-1.06-4.21-2.64-4.21c-1.58,0-2.64,1.57-2.64,4.21
		c0,2.69,1.06,4.31,2.64,4.31C108.2,34.27,109.26,32.66,109.26,29.97z"/>
	<path d="M112.37,24.75h1.5l0.77,6.59c0.1,0.88,0.16,1.39,0.21,2.43h0.05c0.19-1.04,0.3-1.55,0.51-2.42l1.02-3.91h1.28l0.99,3.91
		c0.22,0.86,0.32,1.38,0.51,2.42h0.06c0.06-1.04,0.1-1.55,0.19-2.42l0.74-6.61h1.44l-1.54,10.52h-1.66l-1.02-4.23
		c-0.16-0.64-0.29-1.25-0.38-1.89H117c-0.11,0.64-0.21,1.25-0.37,1.89l-1.02,4.23h-1.63L112.37,24.75z"/>
	<path d="M126.23,34.21c0-0.77,0.54-1.23,1.18-1.23c0.64,0,1.18,0.46,1.18,1.23c0,0.77-0.54,1.25-1.18,1.25
		C126.78,35.46,126.23,34.98,126.23,34.21z M126.79,26.05l-0.03-1.5h1.31l-0.03,1.5l-0.18,5.49h-0.9L126.79,26.05z"/>
</g>
</svg>
