<?xml version="1.0" encoding="utf-8"?>
<!-- Generator: Adobe Illustrator 26.0.2, SVG Export Plug-In . SVG Version: 6.00 Build 0)  -->
<svg version="1.1" id="Layer_1" xmlns="http://www.w3.org/2000/svg" xmlns:xlink="http://www.w3.org/1999/xlink" x="0px" y="0px"
	 viewBox="0 0 250 60" style="enable-background:new 0 0 250 60;" xml:space="preserve">
<style type="text/css">
	.st0{fill:#FFFFFF;}
</style>
<g>
	<path class="st0" d="M72.6,30.2c0,0.43-0.03,0.84-0.1,1.23s-0.17,0.76-0.32,1.09s-0.33,0.64-0.57,0.92s-0.52,0.51-0.85,0.71
		s-0.73,0.35-1.18,0.45c-0.45,0.11-0.95,0.16-1.52,0.16h-1.91v-8.93h2.3c1.39,0,2.43,0.36,3.12,1.08S72.6,28.73,72.6,30.2z
		 M71.32,30.29c0-0.63-0.06-1.17-0.18-1.61s-0.3-0.79-0.54-1.06s-0.54-0.46-0.91-0.58s-0.79-0.18-1.29-0.18h-1.05v6.86h0.91
		C70.31,33.72,71.32,32.57,71.32,30.29z"/>
	<path class="st0" d="M77.39,26.86h-2.06v-1.03h5.35v1.03h-2.06v6.87h2.06v1.04h-5.35v-1.04h2.06V26.86z"/>
	<path class="st0" d="M89.71,32.35c0,0.42-0.09,0.8-0.26,1.11s-0.41,0.58-0.72,0.8s-0.68,0.37-1.12,0.48
		c-0.44,0.1-0.92,0.16-1.44,0.16c-0.24,0-0.47-0.01-0.71-0.03s-0.46-0.04-0.68-0.07s-0.42-0.06-0.61-0.1s-0.36-0.08-0.52-0.12v-1.18
		c0.34,0.13,0.73,0.23,1.15,0.3s0.91,0.11,1.45,0.11c0.39,0,0.73-0.03,1-0.09s0.5-0.15,0.68-0.27s0.3-0.27,0.38-0.44
		s0.12-0.37,0.12-0.59c0-0.24-0.07-0.45-0.2-0.62s-0.31-0.32-0.53-0.46s-0.47-0.26-0.75-0.37s-0.57-0.23-0.86-0.35
		s-0.58-0.25-0.86-0.39s-0.53-0.3-0.75-0.49s-0.4-0.41-0.53-0.67s-0.2-0.56-0.2-0.91c0-0.31,0.06-0.61,0.19-0.9s0.33-0.56,0.59-0.79
		s0.61-0.42,1.04-0.56s0.92-0.21,1.51-0.21c0.15,0,0.31,0.01,0.49,0.02s0.35,0.03,0.53,0.06s0.36,0.05,0.53,0.09s0.34,0.07,0.49,0.1
		v1.09c-0.35-0.1-0.7-0.18-1.05-0.23s-0.69-0.08-1.02-0.08c-0.7,0-1.21,0.12-1.54,0.35s-0.49,0.54-0.49,0.94
		c0,0.24,0.07,0.45,0.2,0.62s0.31,0.33,0.53,0.46s0.47,0.26,0.75,0.37s0.57,0.23,0.86,0.35s0.58,0.25,0.86,0.39s0.53,0.31,0.75,0.5
		s0.4,0.42,0.53,0.68S89.71,31.99,89.71,32.35z"/>
	<path class="st0" d="M98.45,34.43c-0.72,0.3-1.47,0.44-2.25,0.44c-1.26,0-2.23-0.38-2.91-1.13s-1.02-1.87-1.02-3.35
		c0-0.72,0.09-1.36,0.28-1.94s0.45-1.07,0.8-1.47s0.77-0.71,1.26-0.93s1.04-0.33,1.65-0.33c0.41,0,0.8,0.04,1.16,0.11
		s0.7,0.18,1.03,0.32v1.2c-0.32-0.18-0.66-0.31-1-0.41s-0.72-0.14-1.13-0.14c-0.42,0-0.8,0.08-1.14,0.24s-0.63,0.39-0.86,0.68
		s-0.42,0.66-0.55,1.09s-0.19,0.92-0.19,1.47c0,1.16,0.23,2.03,0.7,2.62s1.16,0.88,2.06,0.88c0.38,0,0.75-0.04,1.1-0.13
		s0.69-0.21,1.01-0.37V34.43z"/>
	<path class="st0" d="M107.72,30.24c0,0.8-0.09,1.49-0.28,2.08s-0.44,1.07-0.77,1.45s-0.7,0.66-1.13,0.85
		c-0.43,0.18-0.89,0.28-1.36,0.28c-0.57,0-1.07-0.1-1.5-0.31s-0.78-0.51-1.06-0.9s-0.49-0.87-0.63-1.43s-0.21-1.2-0.21-1.9
		c0-0.79,0.09-1.48,0.28-2.06s0.44-1.07,0.76-1.45s0.7-0.66,1.12-0.85s0.88-0.28,1.36-0.28c0.57,0,1.07,0.1,1.5,0.31
		s0.78,0.51,1.06,0.9s0.49,0.86,0.63,1.43S107.72,29.54,107.72,30.24z M106.45,30.33c0-0.52-0.04-1-0.12-1.44s-0.21-0.81-0.39-1.12
		s-0.41-0.56-0.69-0.73s-0.62-0.26-1.02-0.26c-0.38,0-0.71,0.09-0.99,0.28s-0.5,0.44-0.68,0.75s-0.31,0.69-0.4,1.11
		s-0.13,0.88-0.13,1.36c0,0.53,0.04,1.01,0.12,1.45s0.21,0.81,0.39,1.12s0.4,0.55,0.68,0.73s0.61,0.26,1,0.26
		c0.38,0,0.71-0.09,0.99-0.28s0.51-0.44,0.69-0.75s0.31-0.69,0.4-1.11S106.45,30.81,106.45,30.33z"/>
	<path class="st0" d="M116.81,25.83l-3.04,8.93h-1.64l-2.97-8.93h1.37l1.93,6.02l0.55,1.76l0.56-1.76l1.93-6.02H116.81z"/>
	<path class="st0" d="M124.34,34.77h-5.08v-8.93h5.08v1.03h-3.86v2.77h3.71v1.03h-3.71v3.08h3.86V34.77z"/>
	<path class="st0" d="M133.82,34.77h-1.37l-1.33-2.86c-0.1-0.22-0.2-0.4-0.31-0.54s-0.22-0.26-0.34-0.34s-0.25-0.14-0.4-0.18
		s-0.3-0.05-0.48-0.05h-0.57v3.98h-1.22v-8.93h2.39c0.52,0,0.97,0.06,1.34,0.17s0.68,0.27,0.92,0.48s0.41,0.45,0.53,0.74
		s0.17,0.61,0.17,0.96c0,0.28-0.04,0.54-0.12,0.79s-0.2,0.47-0.37,0.68s-0.36,0.38-0.6,0.53s-0.51,0.26-0.82,0.33
		c0.25,0.09,0.46,0.24,0.64,0.45s0.35,0.5,0.54,0.86L133.82,34.77z M131.87,28.29c0-0.48-0.15-0.84-0.45-1.07s-0.72-0.36-1.26-0.36
		h-1.15v2.95H130c0.29,0,0.55-0.03,0.78-0.1s0.43-0.16,0.59-0.29s0.29-0.29,0.38-0.48S131.87,28.53,131.87,28.29z"/>
	<path class="st0" d="M151.49,34.77h-1.19l-0.18-5.57l-0.08-2.14l-0.42,1.24l-1.32,3.55h-0.84l-1.26-3.42l-0.42-1.38l-0.03,2.24
		l-0.16,5.48h-1.15l0.44-8.93h1.44l1.2,3.36l0.39,1.13l0.38-1.13l1.26-3.36h1.48L151.49,34.77z"/>
	<path class="st0" d="M160.2,30.24c0,0.8-0.09,1.49-0.28,2.08c-0.19,0.58-0.44,1.07-0.77,1.45c-0.32,0.38-0.7,0.66-1.13,0.85
		c-0.43,0.18-0.89,0.28-1.36,0.28c-0.57,0-1.07-0.1-1.5-0.31c-0.43-0.21-0.78-0.51-1.06-0.9c-0.28-0.39-0.49-0.87-0.63-1.43
		s-0.21-1.2-0.21-1.9c0-0.79,0.09-1.48,0.28-2.06s0.44-1.07,0.76-1.45c0.32-0.38,0.7-0.66,1.12-0.85s0.88-0.28,1.36-0.28
		c0.57,0,1.07,0.1,1.5,0.31c0.43,0.21,0.78,0.51,1.06,0.9s0.49,0.86,0.63,1.43C160.13,28.91,160.2,29.54,160.2,30.24z M158.93,30.33
		c0-0.52-0.04-1-0.12-1.44c-0.08-0.44-0.21-0.81-0.39-1.12s-0.41-0.56-0.69-0.73c-0.28-0.17-0.62-0.26-1.01-0.26
		c-0.38,0-0.71,0.09-0.99,0.28c-0.28,0.18-0.5,0.44-0.68,0.75s-0.31,0.69-0.4,1.11s-0.13,0.88-0.13,1.36c0,0.53,0.04,1.01,0.12,1.45
		s0.21,0.81,0.39,1.12c0.17,0.31,0.4,0.55,0.68,0.73s0.61,0.26,1,0.26c0.38,0,0.71-0.09,0.99-0.28s0.51-0.44,0.69-0.75
		c0.18-0.32,0.31-0.69,0.4-1.11S158.93,30.81,158.93,30.33z"/>
	<path class="st0" d="M168.81,34.77h-1.37l-1.33-2.86c-0.1-0.22-0.2-0.4-0.31-0.54s-0.22-0.26-0.34-0.34
		c-0.12-0.08-0.25-0.14-0.4-0.18c-0.14-0.04-0.3-0.05-0.48-0.05H164v3.98h-1.22v-8.93h2.39c0.52,0,0.97,0.06,1.34,0.17
		s0.68,0.27,0.92,0.48c0.24,0.21,0.41,0.45,0.53,0.74c0.11,0.29,0.17,0.61,0.17,0.96c0,0.28-0.04,0.54-0.12,0.79
		s-0.2,0.47-0.37,0.68c-0.16,0.2-0.36,0.38-0.6,0.53c-0.24,0.15-0.51,0.26-0.82,0.33c0.25,0.09,0.46,0.24,0.64,0.45
		c0.18,0.22,0.35,0.5,0.54,0.86L168.81,34.77z M166.86,28.29c0-0.48-0.15-0.84-0.45-1.07c-0.3-0.24-0.72-0.36-1.26-0.36H164v2.95
		h0.98c0.29,0,0.55-0.03,0.78-0.1c0.23-0.07,0.43-0.16,0.59-0.29c0.16-0.13,0.29-0.29,0.38-0.48
		C166.82,28.75,166.86,28.53,166.86,28.29z"/>
	<path class="st0" d="M176.82,34.77h-5.08v-8.93h5.08v1.03h-3.86v2.77h3.71v1.03h-3.71v3.08h3.86V34.77z"/>
	<path class="st0" d="M182.95,33.09c0.12,0,0.24,0.02,0.35,0.07s0.2,0.11,0.28,0.19c0.08,0.08,0.14,0.18,0.19,0.29
		c0.05,0.11,0.07,0.23,0.07,0.35s-0.02,0.24-0.07,0.35c-0.05,0.11-0.11,0.2-0.19,0.28c-0.08,0.08-0.17,0.14-0.28,0.19
		c-0.11,0.05-0.23,0.07-0.35,0.07c-0.13,0-0.25-0.02-0.36-0.07c-0.11-0.05-0.21-0.11-0.29-0.19c-0.08-0.08-0.15-0.17-0.19-0.28
		c-0.05-0.11-0.07-0.23-0.07-0.35s0.02-0.24,0.07-0.35c0.05-0.11,0.11-0.21,0.19-0.29s0.18-0.15,0.29-0.19
		S182.83,33.09,182.95,33.09z M183.67,25.11l-0.18,7.04h-1.05l-0.21-7.04H183.67z"/>
</g>
</svg>
