<?xml version="1.0" encoding="utf-8"?>
<!-- Generator: Adobe Illustrator 26.0.2, SVG Export Plug-In . SVG Version: 6.00 Build 0)  -->
<svg version="1.1" id="Layer_1" xmlns="http://www.w3.org/2000/svg" xmlns:xlink="http://www.w3.org/1999/xlink" x="0px" y="0px"
	 viewBox="0 0 250 60" style="enable-background:new 0 0 250 60;" xml:space="preserve">
<style type="text/css">
	.st0{fill:#FFFFFF;}
</style>
<g>
	<path class="st0" d="M67.64,30.17c0,0.37-0.03,0.72-0.08,1.05s-0.15,0.65-0.27,0.94S67,32.72,66.8,32.95s-0.44,0.44-0.73,0.61
		s-0.62,0.3-1.01,0.39s-0.82,0.14-1.31,0.14h-1.64v-7.66h1.97c1.2,0,2.09,0.31,2.67,0.92S67.64,28.91,67.64,30.17z M66.55,30.25
		c0-0.54-0.05-1-0.15-1.38s-0.26-0.68-0.46-0.91s-0.47-0.4-0.78-0.5s-0.68-0.16-1.1-0.16h-0.9v5.88h0.78
		C65.68,33.18,66.55,32.21,66.55,30.25z"/>
	<path class="st0" d="M71.44,27.31h-1.76v-0.88h4.58v0.88H72.5v5.89h1.76v0.89h-4.58V33.2h1.76V27.31z"/>
	<path class="st0" d="M81.71,32.01c0,0.36-0.07,0.68-0.22,0.96s-0.36,0.5-0.62,0.68s-0.58,0.32-0.96,0.41s-0.78,0.13-1.23,0.13
		c-0.2,0-0.41-0.01-0.61-0.02s-0.39-0.04-0.58-0.06s-0.36-0.05-0.52-0.08s-0.31-0.06-0.45-0.1v-1.01c0.29,0.11,0.62,0.2,0.99,0.26
		s0.78,0.09,1.25,0.09c0.34,0,0.62-0.03,0.86-0.08s0.43-0.13,0.58-0.23s0.26-0.23,0.33-0.38s0.1-0.32,0.1-0.51
		c0-0.21-0.06-0.38-0.17-0.53s-0.27-0.28-0.45-0.39s-0.4-0.22-0.64-0.32s-0.49-0.19-0.74-0.3s-0.5-0.21-0.74-0.33
		s-0.45-0.26-0.64-0.42s-0.34-0.35-0.45-0.57s-0.17-0.48-0.17-0.78c0-0.26,0.05-0.52,0.16-0.77s0.28-0.48,0.51-0.68
		s0.53-0.36,0.89-0.48s0.79-0.18,1.29-0.18c0.13,0,0.27,0.01,0.42,0.02s0.3,0.03,0.46,0.05s0.31,0.05,0.46,0.07s0.29,0.06,0.42,0.09
		v0.94c-0.3-0.09-0.6-0.15-0.9-0.2s-0.59-0.07-0.87-0.07c-0.6,0-1.04,0.1-1.32,0.3s-0.42,0.47-0.42,0.8c0,0.21,0.06,0.38,0.17,0.53
		s0.27,0.28,0.45,0.4s0.4,0.22,0.64,0.32s0.49,0.19,0.74,0.3s0.5,0.21,0.74,0.33s0.45,0.26,0.64,0.43s0.34,0.36,0.45,0.58
		S81.71,31.71,81.71,32.01z"/>
	<path class="st0" d="M88.9,33.8c-0.61,0.25-1.26,0.38-1.93,0.38c-1.08,0-1.91-0.32-2.49-0.97s-0.87-1.6-0.87-2.87
		c0-0.61,0.08-1.17,0.24-1.66s0.39-0.92,0.69-1.26s0.66-0.61,1.08-0.8s0.89-0.28,1.42-0.28c0.36,0,0.69,0.03,0.99,0.09
		s0.6,0.15,0.88,0.28v1.03c-0.28-0.15-0.56-0.27-0.86-0.35s-0.62-0.12-0.97-0.12c-0.36,0-0.68,0.07-0.98,0.2s-0.54,0.33-0.74,0.59
		s-0.36,0.57-0.47,0.94s-0.16,0.79-0.16,1.26c0,0.99,0.2,1.74,0.6,2.24s0.99,0.76,1.77,0.76c0.33,0,0.64-0.04,0.94-0.11
		s0.59-0.18,0.87-0.32V33.8z"/>
	<path class="st0" d="M96.54,30.21c0,0.69-0.08,1.28-0.24,1.78s-0.38,0.91-0.66,1.24s-0.6,0.57-0.97,0.73s-0.76,0.24-1.17,0.24
		c-0.49,0-0.92-0.09-1.29-0.27s-0.67-0.43-0.91-0.77s-0.42-0.75-0.54-1.23S90.6,30.9,90.6,30.3c0-0.68,0.08-1.27,0.24-1.77
		s0.38-0.91,0.65-1.24s0.6-0.57,0.96-0.73s0.76-0.24,1.17-0.24c0.49,0,0.92,0.09,1.29,0.27s0.67,0.44,0.91,0.77s0.42,0.74,0.54,1.22
		S96.54,29.61,96.54,30.21z M95.46,30.28c0-0.45-0.03-0.86-0.1-1.23s-0.18-0.69-0.33-0.96s-0.35-0.48-0.59-0.63
		s-0.53-0.22-0.87-0.22c-0.33,0-0.61,0.08-0.85,0.24s-0.43,0.37-0.58,0.64s-0.27,0.59-0.34,0.96s-0.11,0.75-0.11,1.16
		c0,0.45,0.04,0.87,0.11,1.24s0.18,0.69,0.33,0.96s0.34,0.48,0.58,0.62s0.53,0.22,0.86,0.22c0.33,0,0.61-0.08,0.85-0.24
		s0.43-0.37,0.59-0.64s0.27-0.59,0.34-0.95S95.46,30.7,95.46,30.28z"/>
	<path class="st0" d="M104.04,26.43l-2.6,7.66h-1.41l-2.54-7.66h1.18l1.65,5.16l0.47,1.51l0.48-1.51l1.66-5.16H104.04z"/>
	<path class="st0" d="M110.19,34.09h-4.35v-7.66h4.35v0.88h-3.31v2.37h3.18v0.88h-3.18v2.64h3.31V34.09z"/>
	<path class="st0" d="M118.02,34.09h-1.18l-1.14-2.45c-0.09-0.19-0.17-0.34-0.26-0.47s-0.19-0.22-0.29-0.29s-0.22-0.12-0.34-0.16
		s-0.26-0.05-0.41-0.05h-0.49v3.41h-1.04v-7.66h2.05c0.45,0,0.83,0.05,1.15,0.15s0.58,0.23,0.79,0.41s0.36,0.39,0.45,0.64
		s0.14,0.52,0.14,0.82c0,0.24-0.04,0.46-0.11,0.68s-0.17,0.41-0.31,0.58s-0.31,0.32-0.52,0.45s-0.44,0.22-0.71,0.28
		c0.21,0.07,0.4,0.2,0.55,0.39s0.3,0.43,0.46,0.74L118.02,34.09z M116.35,28.53c0-0.41-0.13-0.72-0.38-0.92s-0.62-0.3-1.08-0.3
		h-0.98v2.53h0.84c0.25,0,0.47-0.03,0.67-0.08s0.37-0.14,0.5-0.25s0.25-0.25,0.32-0.41S116.35,28.74,116.35,28.53z"/>
	<path class="st0" d="M132.35,27.32h-2.27v6.77h-1.05v-6.77h-2.27v-0.89h5.59V27.32z"/>
	<path class="st0" d="M139.4,34.09h-1.04v-3.52h-3.22v3.52h-1.04v-7.66h1.04v3.24h3.22v-3.24h1.04V34.09z"/>
	<path class="st0" d="M146.18,34.09h-4.35v-7.66h4.35v0.88h-3.31v2.37h3.18v0.88h-3.18v2.64h3.31V34.09z"/>
	<path class="st0" d="M154.16,34.09h-1.02l-0.15-4.78l-0.06-1.83l-0.36,1.07l-1.13,3.05h-0.72l-1.08-2.93l-0.36-1.18l-0.02,1.92
		l-0.13,4.69h-0.98l0.38-7.66h1.24l1.03,2.88l0.33,0.97l0.32-0.97l1.08-2.88h1.27L154.16,34.09z"/>
	<path class="st0" d="M168.15,34.09h-1.36l-2.23-4.78l-0.64-1.54v3.86v2.45h-0.97v-7.66h1.34l2.13,4.52l0.77,1.75v-4.1v-2.17h0.97
		V34.09z"/>
	<path class="st0" d="M175.71,30.21c0,0.69-0.08,1.28-0.24,1.78s-0.38,0.91-0.66,1.24s-0.6,0.57-0.97,0.73s-0.76,0.24-1.17,0.24
		c-0.49,0-0.92-0.09-1.29-0.27s-0.67-0.43-0.91-0.77s-0.42-0.75-0.54-1.23s-0.18-1.03-0.18-1.63c0-0.68,0.08-1.27,0.24-1.77
		s0.38-0.91,0.65-1.24s0.6-0.57,0.96-0.73s0.76-0.24,1.17-0.24c0.49,0,0.92,0.09,1.29,0.27s0.67,0.44,0.91,0.77s0.42,0.74,0.54,1.22
		S175.71,29.61,175.71,30.21z M174.63,30.28c0-0.45-0.03-0.86-0.1-1.23s-0.18-0.69-0.33-0.96s-0.35-0.48-0.59-0.63
		s-0.53-0.22-0.87-0.22c-0.33,0-0.61,0.08-0.85,0.24s-0.43,0.37-0.58,0.64s-0.27,0.59-0.34,0.96s-0.11,0.75-0.11,1.16
		c0,0.45,0.04,0.87,0.11,1.24s0.18,0.69,0.33,0.96s0.34,0.48,0.58,0.62s0.53,0.22,0.86,0.22c0.33,0,0.61-0.08,0.85-0.24
		s0.43-0.37,0.59-0.64s0.27-0.59,0.34-0.95S174.63,30.7,174.63,30.28z"/>
	<path class="st0" d="M182.97,26.43l-0.52,7.66h-1.35l-0.95-2.72l-0.26-0.87l-0.28,0.94l-0.88,2.65h-1.31l-0.53-7.66h0.98l0.3,5.21
		l0.09,1.43l0.37-1.21l0.93-2.84h0.72l1.07,3.05l0.36,1.01l0.02-1.05l0.3-5.58H182.97z"/>
	<path class="st0" d="M187.12,32.65c0.11,0,0.21,0.02,0.3,0.06s0.17,0.1,0.24,0.17s0.12,0.15,0.16,0.25s0.06,0.2,0.06,0.3
		s-0.02,0.21-0.06,0.3s-0.1,0.17-0.16,0.24s-0.15,0.12-0.24,0.16s-0.19,0.06-0.3,0.06c-0.11,0-0.21-0.02-0.3-0.06
		s-0.18-0.1-0.25-0.16s-0.13-0.15-0.17-0.24s-0.06-0.19-0.06-0.3s0.02-0.21,0.06-0.3s0.1-0.18,0.17-0.25s0.15-0.13,0.25-0.17
		S187.01,32.65,187.12,32.65z M187.74,25.81l-0.16,6.04h-0.9l-0.18-6.04H187.74z"/>
</g>
</svg>
